<svg xmlns="http://www.w3.org/2000/svg" viewBox="0 0 1600 900"><defs><filter id="s"><feDropShadow dx="0" dy="18" stdDeviation="24" flood-color="#102B45" flood-opacity=".12"/></filter></defs><rect width="1600" height="900" fill="#FFF6D7"/><circle cx="1320" cy="150" r="220" fill="#FFECB0" opacity=".8"/><circle cx="230" cy="760" r="170" fill="#FFECB0" opacity=".6"/><rect x="120" y="100" width="1360" height="700" rx="60" fill="#fff" filter="url(#s)"/><path d="M350 270 H690 Q730 270 730 310 V455 Q730 495 690 495 H565 L500 565 V495 H350 Q310 495 310 455 V310 Q310 270 350 270 Z" fill="#FFECB0" stroke="#B47B00" stroke-width="5"/><path d="M870 340 H1190 Q1230 340 1230 380 V500 Q1230 540 1190 540 H1080 L1025 600 V540 H870 Q830 540 830 500 V380 Q830 340 870 340 Z" fill="#FFECB0" stroke="#B47B00" stroke-width="5"/><path d="M560 420 q35 -90 70 0 q35 90 70 0 q35 -90 70 0" stroke="#B47B00" stroke-width="14" fill="none" stroke-linecap="round"/></svg>