<svg xmlns="http://www.w3.org/2000/svg" viewBox="0 0 1600 900"><defs><filter id="s"><feDropShadow dx="0" dy="18" stdDeviation="24" flood-color="#102B45" flood-opacity=".12"/></filter></defs><rect width="1600" height="900" fill="#EAF7F1"/><circle cx="1320" cy="150" r="220" fill="#D8F0E4" opacity=".8"/><circle cx="230" cy="760" r="170" fill="#D8F0E4" opacity=".6"/><rect x="120" y="100" width="1360" height="700" rx="60" fill="#fff" filter="url(#s)"/><g transform="translate(270 185)"><rect width="1060" height="530" rx="34" fill="#fff" stroke="#0B6A48" stroke-opacity=".18" stroke-width="5"/><rect width="1060" height="78" rx="34" fill="#D8F0E4"/><rect y="44" width="1060" height="34" fill="#D8F0E4"/><circle cx="44" cy="39" r="9" fill="#0B6A48"/><circle cx="74" cy="39" r="9" fill="#0B6A48" opacity=".5"/><circle cx="104" cy="39" r="9" fill="#0B6A48" opacity=".25"/><rect x="90" y="135" width="270" height="250" rx="28" fill="#D8F0E4"/><rect x="430" y="150" width="390" height="14" rx="7" fill="#102B45" opacity=".65"/><rect x="430" y="196" width="330" height="14" rx="7" fill="#102B45" opacity=".18"/><rect x="430" y="242" width="420" height="14" rx="7" fill="#102B45" opacity=".18"/><rect x="430" y="288" width="290" height="14" rx="7" fill="#102B45" opacity=".18"/><rect x="430" y="334" width="360" height="14" rx="7" fill="#102B45" opacity=".18"/><rect x="430" y="410" width="260" height="58" rx="18" fill="#0B6A48"/></g></svg>