<svg xmlns="http://www.w3.org/2000/svg" viewBox="0 0 620 270" role="img" aria-label="Shopify store shown on laptop and phone with product thumbnails and plant"><rect width="620" height="270" rx="24" fill="#FCFBF7"/><ellipse cx="337" cy="228" rx="216" ry="19" fill="#F2E6D6"/><g><path d="M90 145c26-34 54-42 83-22-7-39 8-70 45-94 0 48-20 79-56 94 36-28 68-31 96-8-37 19-71 22-102 10" fill="none" stroke="#568A50" stroke-width="8" stroke-linecap="round"/><path d="M112 166h69l-10 59h-48z" fill="#E5C89B"/></g><g><rect x="202" y="54" width="252" height="145" rx="14" fill="#E7EFF4" stroke="#214E6B" stroke-width="9"/><rect x="225" y="78" width="206" height="98" rx="9" fill="#fff"/><path d="M183 206h293" stroke="#214E6B" stroke-width="9" stroke-linecap="round"/><g transform="translate(305 91)"><path d="M19 22h53l8 57H11z" fill="#78B33C"/><path d="M29 23c0-16 8-26 17-26s17 10 17 26" fill="none" stroke="#5E8B2B" stroke-width="6"/><text x="45" y="61" text-anchor="middle" font-family="DM Sans,sans-serif" font-weight="800" font-size="28" fill="#fff">S</text></g><g><rect x="240" y="137" width="54" height="30" rx="5" fill="#F3EEE4"/><path d="M260 151c5-10 10-10 15 0 5-10 10-10 15 0l-4 12h-22z" fill="#6A9E64"/><rect x="303" y="137" width="54" height="30" rx="5" fill="#F3EEE4"/><path d="M321 145h17l3 14h-23z" fill="#D7B27A"/><rect x="365" y="137" width="54" height="30" rx="5" fill="#F3EEE4"/><path d="M379 146c10-10 22-10 31 0l-4 13h-23z" fill="#3F6F9B"/></g></g><g><rect x="440" y="117" width="89" height="112" rx="17" fill="#fff" stroke="#214E6B" stroke-width="8"/><rect x="469" y="132" width="31" height="5" rx="2" fill="#214E6B"/><path d="M467 165h38l6 48h-50z" fill="#78B33C"/><path d="M474 166c0-13 6-21 12-21s12 8 12 21" fill="none" stroke="#5E8B2B" stroke-width="5"/></g><path d="M535 80l9-22M550 91l19-14M554 108l25 1" stroke="#E87520" stroke-width="6" stroke-linecap="round"/></svg>