<svg xmlns="http://www.w3.org/2000/svg" viewBox="0 0 980 250" role="img" aria-label="Holiday catalog products flowing through Penstack into Shopify"><rect width="980" height="250" fill="none"/><g><rect x="28" y="36" width="150" height="160" rx="20" fill="#fff" stroke="#F0C8B7" stroke-width="2"/><rect x="64" y="86" width="78" height="71" rx="8" fill="#E87520"/><path d="M103 86v71M64 107h78" stroke="#fff" stroke-width="7"/><path d="M87 87c-28-33 15-47 16 0M119 87c28-33-15-47-16 0" fill="none" stroke="#F6D5C7" stroke-width="9" stroke-linecap="round"/><path d="M130 138c19-23 40-17 40 4 0 19-27 34-27 34s-23-17-13-38z" fill="#EFE0C2" transform="rotate(15 145 150)"/></g><g><rect x="204" y="36" width="150" height="160" rx="20" fill="#fff" stroke="#D7E2EA" stroke-width="2"/><path d="M244 87c18-18 54-20 77 2l-9 77h-57z" fill="#2F68A2"/><path d="M260 84c3-17 14-27 29-27 16 0 28 10 31 29" fill="none" stroke="#2F68A2" stroke-width="8"/><circle cx="289" cy="56" r="12" fill="#2F68A2"/><path d="M255 112h62M252 129h62" stroke="#295D91" stroke-width="4" opacity=".55"/></g><g><rect x="380" y="36" width="150" height="160" rx="20" fill="#fff" stroke="#E7D9C8" stroke-width="2"/><path d="M421 88h67l-7 76h-53z" fill="#D7AE72"/><path d="M433 89c0-20 9-32 21-32s21 12 21 32" fill="none" stroke="#9E6B32" stroke-width="8"/><rect x="447" y="115" width="16" height="10" rx="2" fill="#E8C997"/></g><g stroke="#1B2A4A" stroke-width="8" fill="none" stroke-linecap="round" stroke-linejoin="round"><path d="M557 116h76"/><path d="m616 96 22 20-22 20"/></g><g transform="translate(662 51)"><rect width="148" height="148" rx="28" fill="#0A405E"/><rect x="40" y="35" width="15" height="72" rx="7" fill="#F0A500"/><rect x="66" y="52" width="15" height="55" rx="7" fill="#1A5C3A"/><rect x="92" y="66" width="15" height="41" rx="7" fill="#E87520"/></g><g stroke="#1B2A4A" stroke-width="8" fill="none" stroke-linecap="round" stroke-linejoin="round"><path d="M827 116h70"/><path d="m882 96 22 20-22 20"/></g><g transform="translate(900 46)"><path d="M20 41h64l11 119H9z" fill="#7CB342"/><path d="M32 42c0-28 13-44 31-44s31 16 31 44" fill="none" stroke="#5E8B2B" stroke-width="9"/><text x="52" y="112" text-anchor="middle" font-family="DM Sans,sans-serif" font-size="46" font-weight="800" fill="#fff">S</text><path d="M84 8l16-18M93 25l24-5M89 43l21 10" stroke="#1A5C3A" stroke-width="7" stroke-linecap="round"/></g></svg>